simulation
nRows=61
nColumns=15
endheader
time  TH_x TH_y TH_z SC_y  SC_z  SC_x  AC_y  AC_z  AC_x  GH_y  GH_z  GH_yy  EL_x  PS_y
0.000000  0.000000  0.000000  0.000000  -41.623174  1.598959  -20.000000  52.321851  20.342147  22.913688  0.071493  13.416466  -29.800196  31.187404  127.570378
0.000081  0.000000  0.000000  0.000000  -41.623174  1.598959  -15.000000  53.324633  16.357190  19.731052  0.071493  13.416466  -29.800196  31.187404  127.570378
0.000161  0.000000  0.000000  0.000000  -41.623174  1.598959  -10.000000  54.081872  12.326397  16.676613  0.071493  13.416466  -29.800196  31.187404  127.570378
0.000242  0.000000  0.000000  0.000000  -41.623174  1.598959  -5.000000  54.611558  8.262681  13.715148  0.071493  13.416466  -29.800196  31.187404  127.570378
0.000323  0.000000  0.000000  0.000000  -41.623174  1.598959  0.000000  54.926127  4.177649  10.814291  0.071493  13.416466  -29.800196  31.187404  127.570378
0.000404  0.000000  0.000000  0.000000  -41.623174  1.598959  5.000000  55.032909  0.082055  7.943573  0.071493  13.416466  -29.800196  31.187404  127.570378
0.000484  0.000000  0.000000  0.000000  -41.623174  1.598959  10.000000  54.934368  -4.013743  5.073444  0.071493  13.416466  -29.800196  31.187404  127.570378
0.000565  0.000000  0.000000  0.000000  -41.623174  1.598959  15.000000  54.628227  -8.099402  2.174372  0.071493  13.416466  -29.800196  31.187404  127.570378
0.000646  0.000000  0.000000  0.000000  -41.623174  1.598959  20.000000  54.107346  -12.164181  -0.784071  0.071493  13.416466  -29.800196  31.187404  127.570378
0.000726  0.000000  0.000000  0.000000  -41.623174  1.598959  25.000000  53.359544  -16.196537  -3.834120  0.071493  13.416466  -29.800196  31.187404  127.570378
0.000807  0.000000  0.000000  0.000000  -41.623174  1.598959  30.000000  52.367017  -20.183598  -7.010898  0.071493  13.416466  -29.800196  31.187404  127.570378
0.000888  0.000000  0.000000  0.000000  -41.623174  1.598959  35.000000  51.105909  -24.110645  -10.353363  0.071493  13.416466  -29.800196  31.187404  127.570378
0.000969  0.000000  0.000000  0.000000  -41.623174  1.598959  40.000000  49.545522  -27.960424  -13.905431  0.071493  13.416466  -29.800196  31.187404  127.570378
0.001049  0.000000  0.000000  0.000000  -41.623174  1.598959  45.000000  47.647625  -31.712339  -17.716999  0.071493  13.416466  -29.800196  31.187404  127.570378
0.001130  0.000000  0.000000  0.000000  -41.623174  1.598959  50.000000  45.365947  -35.341424  -21.844733  0.071493  13.416466  -29.800196  31.187404  127.570378
0.001211  0.000000  0.000000  0.000000  -49.581593  12.826643  -20.000000  49.554212  17.045359  24.549511  -26.482935  -4.204560  21.328507  13.263299  111.091415
0.001291  0.000000  0.000000  0.000000  -49.581593  12.826643  -15.000000  50.423959  13.214630  21.219990  -26.482935  -4.204560  21.328507  13.263299  111.091415
0.001372  0.000000  0.000000  0.000000  -49.581593  12.826643  -10.000000  51.055395  9.342188  17.994072  -26.482935  -4.204560  21.328507  13.263299  111.091415
0.001453  0.000000  0.000000  0.000000  -49.581593  12.826643  -5.000000  51.461593  5.441314  14.839405  -26.482935  -4.204560  21.328507  13.263299  111.091415
0.001534  0.000000  0.000000  0.000000  -49.581593  12.826643  0.000000  51.650919  1.524253  11.725528  -26.482935  -4.204560  21.328507  13.263299  111.091415
0.001614  0.000000  0.000000  0.000000  -49.581593  12.826643  5.000000  51.627255  -2.397291  8.622978  -26.482935  -4.204560  21.328507  13.263299  111.091415
0.001695  0.000000  0.000000  0.000000  -49.581593  12.826643  10.000000  51.390142  -6.311772  5.502592  -26.482935  -4.204560  21.328507  13.263299  111.091415
0.001776  0.000000  0.000000  0.000000  -49.581593  12.826643  15.000000  50.934674  -10.207411  2.334757  -26.482935  -4.204560  21.328507  13.263299  111.091415
0.001856  0.000000  0.000000  0.000000  -49.581593  12.826643  20.000000  50.251482  -14.071749  -0.911360  -26.482935  -4.204560  21.328507  13.263299  111.091415
0.001937  0.000000  0.000000  0.000000  -49.581593  12.826643  25.000000  49.326378  -17.891244  -4.268588  -26.482935  -4.204560  21.328507  13.263299  111.091415
0.002018  0.000000  0.000000  0.000000  -49.581593  12.826643  30.000000  48.140201  -21.650721  -7.772424  -26.482935  -4.204560  21.328507  13.263299  111.091415
0.002099  0.000000  0.000000  0.000000  -49.581593  12.826643  35.000000  46.668357  -25.332820  -11.461826  -26.482935  -4.204560  21.328507  13.263299  111.091415
0.002179  0.000000  0.000000  0.000000  -49.581593  12.826643  40.000000  44.880616  -28.917371  -15.379741  -26.482935  -4.204560  21.328507  13.263299  111.091415
0.002260  0.000000  0.000000  0.000000  -49.581593  12.826643  45.000000  42.741130  -32.380518  -19.573362  -26.482935  -4.204560  21.328507  13.263299  111.091415
0.002341  0.000000  0.000000  0.000000  -49.581593  12.826643  50.000000  40.208901  -35.693975  -24.093850  -26.482935  -4.204560  21.328507  13.263299  111.091415
0.002422  0.000000  0.000000  0.000000  -38.177190  11.407826  -20.000000  42.622901  23.435456  17.456258  39.261431  -3.318230  15.413325  18.274354  111.857939
0.002502  0.000000  0.000000  0.000000  -38.177190  11.407826  -15.000000  44.072182  20.001920  13.542886  39.261431  -3.318230  15.413325  18.274354  111.857939
0.002583  0.000000  0.000000  0.000000  -38.177190  11.407826  -10.000000  45.245307  16.486194  9.798640  39.261431  -3.318230  15.413325  18.274354  111.857939
0.002664  0.000000  0.000000  0.000000  -38.177190  11.407826  -5.000000  46.161730  12.906298  6.189224  39.261431  -3.318230  15.413325  18.274354  111.857939
0.002744  0.000000  0.000000  0.000000  -38.177190  11.407826  0.000000  46.836934  9.278308  2.682458  39.261431  -3.318230  15.413325  18.274354  111.857939
0.002825  0.000000  0.000000  0.000000  -38.177190  11.407826  5.000000  47.282482  5.616882  -0.752124  39.261431  -3.318230  15.413325  18.274354  111.857939
0.002906  0.000000  0.000000  0.000000  -38.177190  11.407826  10.000000  47.506029  1.935659  -4.143657  39.261431  -3.318230  15.413325  18.274354  111.857939
0.002987  0.000000  0.000000  0.000000  -38.177190  11.407826  15.000000  47.511437  -1.752310  -7.520467  39.261431  -3.318230  15.413325  18.274354  111.857939
0.003067  0.000000  0.000000  0.000000  -38.177190  11.407826  20.000000  47.298796  -5.434175  -10.910603  39.261431  -3.318230  15.413325  18.274354  111.857939
0.003148  0.000000  0.000000  0.000000  -38.177190  11.407826  25.000000  46.864431  -9.096892  -14.342372  39.261431  -3.318230  15.413325  18.274354  111.857939
0.003229  0.000000  0.000000  0.000000  -38.177190  11.407826  30.000000  46.200896  -12.726887  -17.844835  39.261431  -3.318230  15.413325  18.274354  111.857939
0.003309  0.000000  0.000000  0.000000  -38.177190  11.407826  35.000000  45.296800  -16.309552  -21.448404  39.261431  -3.318230  15.413325  18.274354  111.857939
0.003390  0.000000  0.000000  0.000000  -38.177190  11.407826  40.000000  44.136869  -19.828877  -25.185150  39.261431  -3.318230  15.413325  18.274354  111.857939
0.003471  0.000000  0.000000  0.000000  -38.177190  11.407826  45.000000  42.701843  -23.266953  -29.089275  39.261431  -3.318230  15.413325  18.274354  111.857939
0.003552  0.000000  0.000000  0.000000  -38.177190  11.407826  50.000000  40.968654  -26.603465  -33.197133  39.261431  -3.318230  15.413325  18.274354  111.857939
0.003632  0.000000  0.000000  0.000000  -44.227866  20.052113  -20.000000  23.409898  27.172546  13.864607  -12.272891  -10.337391  -11.381207  17.666512  124.623677
0.003713  0.000000  0.000000  0.000000  -44.227866  20.052113  -15.000000  25.643262  25.095485  8.797717  -12.272891  -10.337391  -11.381207  17.666512  124.623677
0.003794  0.000000  0.000000  0.000000  -44.227866  20.052113  -10.000000  27.632043  22.852276  3.906519  -12.272891  -10.337391  -11.381207  17.666512  124.623677
0.003874  0.000000  0.000000  0.000000  -44.227866  20.052113  -5.000000  29.378064  20.464650  -0.820961  -12.272891  -10.337391  -11.381207  17.666512  124.623677
0.003955  0.000000  0.000000  0.000000  -44.227866  20.052113  0.000000  30.885729  17.953282  -5.400049  -12.272891  -10.337391  -11.381207  17.666512  124.623677
0.004036  0.000000  0.000000  0.000000  -44.227866  20.052113  5.000000  32.160845  15.337685  -9.848305  -12.272891  -10.337391  -11.381207  17.666512  124.623677
0.004117  0.000000  0.000000  0.000000  -44.227866  20.052113  10.000000  33.209739  12.636235  -14.184785  -12.272891  -10.337391  -11.381207  17.666512  124.623677
0.004197  0.000000  0.000000  0.000000  -44.227866  20.052113  15.000000  34.038527  9.866232  -18.429443  -12.272891  -10.337391  -11.381207  17.666512  124.623677
0.004278  0.000000  0.000000  0.000000  -44.227866  20.052113  20.000000  34.652595  7.044056  -22.602649  -12.272891  -10.337391  -11.381207  17.666512  124.623677
0.004359  0.000000  0.000000  0.000000  -44.227866  20.052113  25.000000  35.056215  4.185353  -26.725048  -12.272891  -10.337391  -11.381207  17.666512  124.623677
0.004439  0.000000  0.000000  0.000000  -44.227866  20.052113  30.000000  35.252365  1.305220  -30.817351  -12.272891  -10.337391  -11.381207  17.666512  124.623677
0.004520  0.000000  0.000000  0.000000  -44.227866  20.052113  35.000000  35.242511  -1.581538  -34.900257  -12.272891  -10.337391  -11.381207  17.666512  124.623677
0.004601  0.000000  0.000000  0.000000  -44.227866  20.052113  40.000000  35.026582  -4.460256  -38.994534  -12.272891  -10.337391  -11.381207  17.666512  124.623677
0.004682  0.000000  0.000000  0.000000  -44.227866  20.052113  45.000000  34.602957  -7.316125  -43.120898  -12.272891  -10.337391  -11.381207  17.666512  124.623677
0.004762  0.000000  0.000000  0.000000  -44.227866  20.052113  50.000000  33.968545  -10.133989  -47.300053  -12.272891  -10.337391  -11.381207  17.666512  124.623677
0.004843  0.000000  0.000000  0.000000  -35.832250  21.080774  -20.000000  37.467746  19.988204  27.172872  22.613212  -1.731202  3.803066  31.606833  121.658918
